<svg xmlns="http://www.w3.org/2000/svg" width="1520" height="1116" viewBox="0 0 1520 1116" font-family="ui-monospace, SFMono-Regular, Menlo, monospace">
<rect width="1520" height="1116" fill="#fafafa"/>
<text x="40" y="34" font-size="17" font-weight="bold" fill="#111">Back-office · Deactivate confirmation</text>
<text x="40" y="56" font-size="12" fill="#555">backoffice · desktop 1440x900 · lo-fi: structure and order only — spacing, type, colour and states come from tokens</text>
<g transform="translate(40,78)">
<rect x="0" y="0" width="1440" height="900" fill="#ffffff" stroke="#111" stroke-width="2"/>
<rect x="0" y="0" width="240" height="900" rx="0" fill="#f7f7f7" stroke="#333" stroke-width="1"/><text x="16" y="34" font-size="15" text-anchor="start" font-weight="bold" fill="#111">DeanPOS</text><rect x="12" y="64" width="216" height="28" rx="0" fill="#f7f7f7" stroke="#333" stroke-width="1"/><text x="22" y="82.0" font-size="12" fill="#111">Reports</text><rect x="26" y="98" width="202" height="28" rx="0" fill="#f7f7f7" stroke="#333" stroke-width="1"/><text x="36" y="115.66666666666667" font-size="11" fill="#111">▫  Summary</text><rect x="26" y="132" width="202" height="28" rx="0" fill="#f7f7f7" stroke="#333" stroke-width="1"/><text x="36" y="149.66666666666666" font-size="11" fill="#111">▫  Orders</text><rect x="26" y="166" width="202" height="28" rx="0" fill="#f7f7f7" stroke="#333" stroke-width="1"/><text x="36" y="183.66666666666666" font-size="11" fill="#111">▫  By item</text><rect x="26" y="200" width="202" height="28" rx="0" fill="#f7f7f7" stroke="#333" stroke-width="1"/><text x="36" y="217.66666666666666" font-size="11" fill="#111">▫  By category</text><rect x="26" y="234" width="202" height="28" rx="0" fill="#f7f7f7" stroke="#333" stroke-width="1"/><text x="36" y="251.66666666666666" font-size="11" fill="#111">▫  By cashier</text><rect x="26" y="268" width="202" height="28" rx="0" fill="#f7f7f7" stroke="#333" stroke-width="1"/><text x="36" y="285.6666666666667" font-size="11" fill="#111">▫  By payment method</text><rect x="26" y="302" width="202" height="28" rx="0" fill="#f7f7f7" stroke="#333" stroke-width="1"/><text x="36" y="319.6666666666667" font-size="11" fill="#111">▫  Discounts &amp; overrides</text><rect x="26" y="336" width="202" height="28" rx="0" fill="#f7f7f7" stroke="#333" stroke-width="1"/><text x="36" y="353.6666666666667" font-size="11" fill="#111">▫  Refunds</text><rect x="12" y="370" width="216" height="28" rx="0" fill="#f7f7f7" stroke="#333" stroke-width="1"/><text x="22" y="388.0" font-size="12" fill="#111">Operations</text><rect x="26" y="404" width="202" height="28" rx="0" fill="#f7f7f7" stroke="#333" stroke-width="1"/><text x="36" y="421.6666666666667" font-size="11" fill="#111">▫  Drawer sessions</text><rect x="26" y="438" width="202" height="28" rx="0" fill="#f7f7f7" stroke="#333" stroke-width="1"/><text x="36" y="455.6666666666667" font-size="11" fill="#111">▫  Catalog</text><rect x="26" y="472" width="202" height="28" rx="0" fill="#f7f7f7" stroke="#333" stroke-width="1"/><text x="36" y="489.6666666666667" font-size="11" fill="#111">▫  Add-ons</text><rect x="26" y="506" width="202" height="28" rx="0" fill="#f7f7f7" stroke="#333" stroke-width="1"/><text x="36" y="523.6666666666666" font-size="11" fill="#111">▫  Discounts</text><rect x="26" y="540" width="202" height="28" rx="0" fill="#f7f7f7" stroke="#333" stroke-width="1"/><text x="36" y="557.6666666666666" font-size="11" fill="#111">▫  Availability</text><rect x="12" y="574" width="216" height="28" rx="0" fill="#f7f7f7" stroke="#333" stroke-width="1"/><text x="22" y="592.0" font-size="12" fill="#111">Administration</text><rect x="26" y="608" width="202" height="28" rx="0" fill="#f7f7f7" stroke="#333" stroke-width="1"/><text x="36" y="625.6666666666666" font-size="11" fill="#111">▫  Stores</text><rect x="26" y="642" width="202" height="28" rx="0" fill="#f7f7f7" stroke="#333" stroke-width="1"/><text x="36" y="659.6666666666666" font-size="11" fill="#111">▫  Devices</text><rect x="26" y="676" width="202" height="28" rx="0" fill="#cccccc" stroke="#333" stroke-width="1"/><text x="36" y="693.6666666666666" font-size="11" fill="#111">▫  Employees</text><rect x="26" y="710" width="202" height="28" rx="0" fill="#f7f7f7" stroke="#333" stroke-width="1"/><text x="36" y="727.6666666666666" font-size="11" fill="#111">▫  Roster</text><rect x="26" y="744" width="202" height="28" rx="0" fill="#f7f7f7" stroke="#333" stroke-width="1"/><text x="36" y="761.6666666666666" font-size="11" fill="#111">▫  Quarantine</text><text x="264" y="50" font-size="15" text-anchor="start" font-weight="bold" fill="#111">Hi Jomel</text><rect x="576.0" y="18" width="288" height="44" rx="0" fill="#ffffff" stroke="#333" stroke-width="1"/><text x="586.0" y="44.0" font-size="12" fill="#111">Search…                          ⌘K</text><rect x="1320" y="18" width="44" height="44" rx="0" fill="#ffffff" stroke="#333" stroke-width="1"/><text x="1342.0" y="43.666666666666664" font-size="11" text-anchor="middle" fill="#111">bell</text><rect x="1372" y="18" width="44" height="44" rx="0" fill="#eeeeee" stroke="#333" stroke-width="1"/><text x="1394.0" y="44.0" font-size="12" text-anchor="middle" fill="#111">JO</text><line x1="264" y1="80" x2="1416" y2="80" stroke="#333"/><text x="1416" y="74" font-size="12" text-anchor="end" font-weight="normal" fill="#111"></text><rect x="240" y="0" width="1200" height="900" rx="0" fill="#f7f7f7" stroke="#333" stroke-width="1" stroke-dasharray="6 4"/><rect x="560.0" y="320.0" width="560" height="260" rx="12" fill="#ffffff" stroke="#333" stroke-width="1"/><text x="584.0" y="364.0" font-size="15" text-anchor="start" font-weight="bold" fill="#111">Deactivate juana@nena.test?</text><text x="1096.0" y="364.0" font-size="14" text-anchor="end" font-weight="normal" fill="#111">✕</text><rect x="584.0" y="384.0" width="512" height="76" rx="0" fill="#ffffff" stroke="#333" stroke-width="1"/><text x="594.0" y="404.0" font-size="12" fill="#111">This person is signed out now and cannot use the</text><text x="594.0" y="421.0" font-size="12" fill="#111">terminal or the back office, their past sales stay</text><text x="594.0" y="438.0" font-size="12" fill="#111">attributed to them, and Reactivate restores their access</text><rect x="796.0" y="504.0" width="140" height="48" rx="0" fill="#ffffff" stroke="#333" stroke-width="1"/><text x="866.0" y="532.3333333333334" font-size="13" text-anchor="middle" fill="#111">Cancel</text><rect x="946.0" y="504.0" width="150" height="48" rx="0" fill="#cccccc" stroke="#333" stroke-width="1"/><text x="1021.0" y="532.3333333333334" font-size="13" text-anchor="middle" fill="#111">Deactivate</text>
<text x="0" y="934" font-size="12" fill="#555">· ONE confirmation shape for both records — Stores says the store stops being offered for new work; Employees says the person is signed out now.</text><text x="0" y="954" font-size="12" fill="#555">· Deactivate is the destructive control and reads as such. Cancel sits left of it.</text><text x="0" y="974" font-size="12" fill="#555">· Reactivation is NOT confirmed. Only this direction is.</text><text x="0" y="994" font-size="12" fill="#555">· The dialog animates out before it unmounts; it is not ripped from the DOM on close.</text>
</g>
</svg>
