<svg xmlns="http://www.w3.org/2000/svg" width="470" height="1020" viewBox="0 0 470 1020" font-family="ui-monospace, SFMono-Regular, Menlo, monospace">
<rect width="470" height="1020" fill="#fafafa"/>
<text x="40" y="34" font-size="17" font-weight="bold" fill="#111">POS · Payment</text>
<text x="40" y="56" font-size="12" fill="#555">pos · phone 390x844 · lo-fi: structure and order only — spacing, type, colour and states come from tokens</text>
<g transform="translate(40,78)">
<rect x="0" y="0" width="390" height="844" fill="#ffffff" stroke="#111" stroke-width="2"/>
<rect x="0" y="0" width="390" height="48" rx="0" fill="#eeeeee" stroke="#333" stroke-width="1"/><text x="14" y="29.0" font-size="13" text-anchor="start" font-weight="normal" fill="#111">DeanPOS · Malabon · Counter 2</text><rect x="85.0" y="12" width="220" height="24" rx="0" fill="#cccccc" stroke="#333" stroke-width="1"/><text x="195.0" y="28.0" font-size="12" text-anchor="middle" fill="#111">OFFLINE · 3 queued</text><text x="376" y="29.0" font-size="13" text-anchor="end" font-weight="normal" fill="#111">Ana (cashier)  ·  Lock</text><rect x="8" y="56" width="374" height="88" rx="0" fill="#eeeeee" stroke="#333" stroke-width="1"/><text x="195.0" y="93.5" font-size="24" text-anchor="middle" fill="#111">AMOUNT DUE</text><text x="195.0" y="122.5" font-size="24" text-anchor="middle" fill="#111">₱308.00</text><text x="10" y="168" font-size="11" text-anchor="start" font-weight="normal" fill="#111">Tendered</text><rect x="8" y="176" width="374" height="62" rx="0" fill="#ffffff" stroke="#333" stroke-width="1"/><text x="195.0" y="215.0" font-size="24" text-anchor="middle" fill="#111">₱ 500</text><rect x="8" y="250" width="70" height="44" rx="0" fill="#ffffff" stroke="#333" stroke-width="1"/><text x="43.0" y="275.6666666666667" font-size="11" text-anchor="middle" fill="#111">100</text><rect x="86" y="250" width="70" height="44" rx="0" fill="#ffffff" stroke="#333" stroke-width="1"/><text x="121.0" y="275.6666666666667" font-size="11" text-anchor="middle" fill="#111">200</text><rect x="164" y="250" width="70" height="44" rx="0" fill="#ffffff" stroke="#333" stroke-width="1"/><text x="199.0" y="275.6666666666667" font-size="11" text-anchor="middle" fill="#111">500</text><rect x="242" y="250" width="70" height="44" rx="0" fill="#ffffff" stroke="#333" stroke-width="1"/><text x="277.0" y="275.6666666666667" font-size="11" text-anchor="middle" fill="#111">1000</text><rect x="320" y="250" width="70" height="44" rx="0" fill="#ffffff" stroke="#333" stroke-width="1"/><text x="355.0" y="275.6666666666667" font-size="11" text-anchor="middle" fill="#111">Exact</text><rect x="8" y="306" width="374" height="68" rx="0" fill="#ffffff" stroke="#333" stroke-width="1"/><text x="195.0" y="334.1666666666667" font-size="20" text-anchor="middle" fill="#111">CHANGE</text><text x="195.0" y="359.1666666666667" font-size="20" text-anchor="middle" fill="#111">₱192.00</text><rect x="8" y="388" width="182" height="44" rx="0" fill="#cccccc" stroke="#333" stroke-width="1"/><text x="99.0" y="414.0" font-size="12" text-anchor="middle" fill="#111">Cash</text><rect x="198" y="388" width="182" height="44" rx="0" fill="#ffffff" stroke="#333" stroke-width="1"/><text x="289.0" y="414.0" font-size="12" text-anchor="middle" fill="#111">GCash</text><rect x="8" y="440" width="182" height="44" rx="0" fill="#ffffff" stroke="#333" stroke-width="1"/><text x="99.0" y="466.0" font-size="12" text-anchor="middle" fill="#111">Maya</text><rect x="198" y="440" width="182" height="44" rx="0" fill="#ffffff" stroke="#333" stroke-width="1"/><text x="289.0" y="466.0" font-size="12" text-anchor="middle" fill="#111">Card</text><rect x="8" y="500" width="374" height="30" rx="0" fill="#f7f7f7" stroke="#333" stroke-width="1" stroke-dasharray="6 4"/><text x="195.0" y="518.3333333333334" font-size="10" text-anchor="middle" fill="#111">cash-only tenant: no chooser</text><rect x="8" y="542" width="374" height="140" rx="0" fill="#ffffff" stroke="#333" stroke-width="1"/><text x="18" y="561" font-size="11" fill="#111">Order summary (read-only)</text><text x="18" y="577" font-size="11" fill="#111"></text><text x="18" y="593" font-size="11" fill="#111">…lines…</text><text x="18" y="609" font-size="11" fill="#111">Subtotal            ₱385.00</text><text x="18" y="625" font-size="11" fill="#111">Senior/PWD 20%      −₱77.00</text><text x="18" y="641" font-size="11" fill="#111">VAT — exempt              —</text><text x="18" y="657" font-size="11" fill="#111">AMOUNT DUE          ₱308.00</text><rect x="8" y="696" width="374" height="44" rx="0" fill="#ffffff" stroke="#333" stroke-width="1"/><text x="195.0" y="722.0" font-size="12" text-anchor="middle" fill="#111">Back to order</text><rect x="8" y="752" width="374" height="68" rx="0" fill="#cccccc" stroke="#333" stroke-width="1"/><text x="195.0" y="791.6666666666666" font-size="17" text-anchor="middle" fill="#111">COMPLETE SALE</text>
<text x="0" y="878" font-size="12" fill="#555">· Same order of sections as the tablet; methods wrap to two rows; summary moves below.</text><text x="0" y="898" font-size="12" fill="#555">· Quick-tender row must stay reachable with the on-screen keypad open.</text>
</g>
</svg>
